<!--?xml version="1.0" encoding="utf-8"?-->
<!-- Generator: Adobe Illustrator 19.1.1, SVG Export Plug-In . SVG Version: 6.00 Build 0)  -->
<svg version="1.1" id="_x31_0" xmlns="http://www.w3.org/2000/svg" xmlns:xlink="http://www.w3.org/1999/xlink" x="0px" y="0px" viewBox="0 0 512 512" style="width: 256px; height: 256px; opacity: 1;" xml:space="preserve">
<style type="text/css">
	.st0{fill:#374149;}
</style>
<g>
	<path class="st0" d="M454.824,0H57.176C25.726,0,0,25.726,0,57.176v397.648C0,486.27,25.726,512,57.176,512h397.648
		C486.27,512,512,486.27,512,454.824V57.176C512,25.726,486.27,0,454.824,0z M405.242,357.355
		c-2.035,8.047-14.18,27.29-27.91,39.126c-0.394,0.336-0.778,0.702-1.176,1.027c-0.074,0.058-0.148,0.109-0.218,0.168
		c-3.875,3.133-7.863,5.668-11.805,7.199c-0.078,0.027-0.16,0.042-0.238,0.074c-1.117,0.422-2.23,0.746-3.332,1
		c-1.218,0.254-2.426,0.402-3.61,0.402l-0.726-0.015c-5.316-0.238-14.754-3.313-28.851-9.406
		c-28.114-12.148-55.043-27.656-80.043-46.09c-32.918-24.215-61.894-53.18-86.125-86.094
		c-18.469-25.028-34.004-51.996-46.176-80.157c-6.09-14.09-9.164-23.523-9.402-28.847c-0.93-20.817,38.398-46.348,48.977-49.02
		c2.824-0.714,5.789-1.074,8.816-1.074c1.528,0,3.051,0.09,4.566,0.262c5.606,0.668,10.774,2.473,15.469,5.398
		c1.489,0.945,2.535,1.707,3.551,2.519c2.691,2.199,4.613,4.125,6.172,6.133l20.675,26.516
		c11.215,14.382,10.414,34.637-1.914,48.156c-3.738,4.098-8.989,9.594-12.79,12.5c-0.074,0.058-0.312,0.238-0.355,0.988
		c-0.598,10.672,33.543,49.954,44.5,60.481c10.375,10.797,49.215,44.574,60.317,44.57c0.465,0,0.836-0.074,1.046-0.203
		c3.09-3.969,8.582-9.215,12.672-12.946c6.922-6.312,15.89-9.789,25.25-9.789c8.378,0,16.301,2.722,22.914,7.875l26.512,20.672
		C403.676,327.875,408.871,343.019,405.242,357.355z" style="fill: rgb(255, 255, 255);"></path>
</g>
</svg>
