<svg xmlns="http://www.w3.org/2000/svg" viewBox="0 0 595.3 229.5"><defs><style>.a{fill:#232f73;}.b{fill:#222f73;}.c{fill:#243074;}.d{fill:#c7a54e;}.e{fill:#c7a44d;}.f{fill:#c6a44d;}.g{fill:#c8a651;}.h{fill:#c9a854;}.i{fill:#fbfcfc;}.j{fill:#fbfbfb;}.k{fill:#202d72;isolation:isolate;}</style></defs><title>アートボード 1</title><path class="a" d="M493.84,50.92A20,20,0,0,0,494.5,53q20.78,47.75,41.6,95.46a79.78,79.78,0,0,0,4.26,8.21A15.49,15.49,0,0,0,552,164.64c3.18.4,3.66,1.81,2.89,4.57H499.57v-3.82c2.09-.15,4.2-.27,6.3-.46,6.7-.59,9.42-4.08,8-10.56A61,61,0,0,0,511,145c-2.82-7-5.92-14-8.82-21a2.67,2.67,0,0,0-2.91-1.91q-26.55.09-53.1,0a2.75,2.75,0,0,0-3.05,2.08c-3,7.68-6.13,15.28-9,23a33.54,33.54,0,0,0-1.95,8.43c-.44,4.65,1.73,7.55,6.26,8.61,2.79.66,5.7.85,8.69,1.26v3.71h-43.1v-3.73c.18-.13.32-.32.48-.34,7.41-.49,12.38-4.58,15.34-11,5.5-12,10.89-24,16.05-36.15,8.74-20.49,17.27-41.07,25.87-61.62.36-.86.58-1.77.87-2.65q3-7.1,6-14.19c2.23-5.12,4.52-10.21,6.68-15.37.64-1.53,1.34-2.36,3.21-2.35s2.58.81,3.24,2.35c2.21,5.14,4.55,10.21,6.84,15.31ZM498.18,113c-8.41-20-16.69-39.68-25.27-60.07L447.84,113Z"/><path class="b" d="M324.71,54.55V33.3c-9.69.62-19.21.84-28.62,2-6.7.8-11.34,5.18-13.74,11.51a99.27,99.27,0,0,0-3.23,11c-1.11,4.42-1,4.45-6.09,3.54.49-12.06,1-24.16,1.48-36.45H397.36q.52,9.31,1.06,18.65.31,8.64.64,17.3l-5.6.58c-1.08-5.83-2.12-11.67-5.38-16.8-1.89-4.82-5.74-7.48-10.43-8.88-9.91-2.94-20.1-1.55-30.33-1.91V50.36l0,17.45c0,5.52-.12,11-.12,16.55q0,31.44,0,62.88a48.86,48.86,0,0,0,.63,7.54c.73,4.72,3.46,7.88,8.16,8.87,3.91.83,7.91,1.23,12,1.83v3.73H304.4v-3.87c2.92-.35,5.79-.61,8.63-1,7.56-1.17,10.51-4.29,11.27-12,.28-2.88.47-5.78.47-8.68q0-36.06,0-72.13Q324.72,63,324.71,54.55Z"/><path class="b" d="M26.59,24.76H88.08v3.89c-3.32.46-6.57.74-9.76,1.38-6.81,1.37-9.61,4.51-10.27,11.44-.3,3.16-.43,6.35-.43,9.53q0,48.89,0,97.76c0,9,1.92,11.44,10.84,11.61,12.24.22,24.53.32,36.72-.57,13.61-1,23.62-8.16,29.66-20.57.66-1.35,1.38-2.66,2.05-4,2.22-4.5,2.21-4.5,7.59-3.77q-4.64,16.78-9.24,33.52c-1.22,4.4-1.23,4.39-5.88,4.39H26.54v-4.05c2.43-.32,4.84-.56,7.22-1,7.32-1.24,10.42-4.49,11.19-11.87a84.06,84.06,0,0,0,.45-9q0-46.64,0-93.27a86.9,86.9,0,0,0-.92-11.72c-.59-4.22-3.26-6.89-7.34-8a64.15,64.15,0,0,0-7.44-1.39C26.15,28.68,26.14,28.75,26.59,24.76Z"/><path class="c" d="M220.52,90.66c-.05,6-.14,12-.15,18,0,12-.06,24,0,36a69.44,69.44,0,0,0,.76,9.78c.76,5.07,3.75,8.34,8.8,9.37,3.82.77,7.72,1.17,11.74,1.76v3.69H177.07v-3.84c3.33-.35,6.59-.58,9.82-1.07,6.76-1,9.69-4,10.56-10.75a67,67,0,0,0,.49-8.13q.06-23.88,0-47.76c0-.65-.1-1.3-.16-2V87.37c0-15.16.22-30.33-.2-45.48-.24-8.28-3.24-10.9-11.53-12.16-2.94-.44-5.91-.67-9-1V24.85h64.6v3.8l-2.41.33c-3.33.48-6.7.77-10,1.47-4.6,1-7.29,4-8.14,8.61a19.5,19.5,0,0,0-.51,3.61c-.07,12.45-.08,24.9-.1,37.34Q220.52,85.34,220.52,90.66Z"/><path class="d" d="M220.52,90.66q0-5.32,0-10.65c21.29-5.68,42.52-11.63,63.9-17,13.3-3.31,26.84-5.69,40.28-8.5q0,8.49,0,17c-12,2-24,3.69-36,5.9-22.24,4.12-44.43,8.52-66.63,12.8C221.59,90.33,221.06,90.51,220.52,90.66Z"/><path class="e" d="M399.06,60.82q-.31-8.66-.64-17.3,32.61-2,65.23-4c1.68-.11,3.37,0,5.06,0q-3,7.1-6,14.19Z"/><path class="f" d="M388.08,44.6c3.26,5.13,4.3,11,5.38,16.8l-46.11,6.41,0-17.45Z"/><path class="g" d="M493.84,50.92l-5.16-11.5c9.52.31,19.06.36,28.56,1,11.55.78,23.09,1.88,34.6,3.2,8.59,1,17.13,2.54,25.64,4.37-1.36,0-2.71,0-4.06,0-20.93.58-41.87,1.13-62.79,1.79C505,50,499.44,50.53,493.84,50.92Z"/><path class="d" d="M111,145.88c-2.68-12.1-9-20.74-22-23.66,12.4-1.93,19.15-9.38,21.74-21.57,1.88,12.67,8.3,20.69,21.75,21.56C118.45,126.32,112.63,132.75,111,145.88Z"/><path class="h" d="M197.8,87.37v8.32c-13.61,3.34-27.24,6.62-40.83,10-6.7,1.69-13.33,3.65-20,5.47a4.83,4.83,0,0,1-2.25.09C155.41,102.4,176.38,94.29,197.8,87.37Z"/><path class="i" d="M498.18,113H447.84L472.91,53C481.49,73.36,489.77,93.06,498.18,113Z"/><path class="j" d="M388.08,44.6l-40.76,5.76V33.81c10.23.36,20.42-1,30.33,1.91C382.34,37.12,386.19,39.78,388.08,44.6Z"/><path class="k" d="M30.91,221.53c3.3-1.12,5.31-2.4,6.75-4.16s2.21-4.23,2.21-8.1c0-.38,0-.7,0-1.22,2.75.23,3.58.45,3.58.93,0,.32-.22.48-1.05.77,0,.42-.07.83-.1,1.22a13,13,0,0,1-1.76,6c-1.79,2.75-4.89,4.26-9.47,5.12C30.82,222.1,30.69,221.59,30.91,221.53ZM35,206.71c-.16,2.46-1.34,4.13-2.88,4.13a1.21,1.21,0,0,1-1.22-1.22c0-.61.29-1,1-1.41a4.55,4.55,0,0,0,2.53-4c0-.16.32-.13.35,0a9.72,9.72,0,0,1,.19,1.63H55.52c1-1.28,1.25-1.38,1.44-1.38s.45.13,1.79,1.38c.64.58.77.83.77,1,0,.48-.29.64-1.35.64-.41,0-.54.16-1,.52a16.54,16.54,0,0,1-2.75,2c-.13.07-.38-.09-.29-.22a15.64,15.64,0,0,0,1.64-3.17Zm17.66-4.93c1.38-1.6,1.6-1.73,1.79-1.73s.45.13,1.89,1.32c.64.51.8.73.8.93s-.13.28-.45.28h-20a14.09,14.09,0,0,0-2.27.23l-.32-1.25a11.83,11.83,0,0,0,2.52.22h7.07V198H33.92a14.56,14.56,0,0,0-2.34.19L31.26,197a12,12,0,0,0,2.6.23h9.91v-.9a22.45,22.45,0,0,0-.19-3.36c3.3.32,3.68.58,3.68.93s-.25.48-1.12.83v2.5H55c1.44-1.7,1.67-1.82,1.86-1.82s.45.12,2,1.34c.74.58.9.8.9,1s-.1.29-.42.29H46.14v3.74Zm-3.45,16.1c0,1,.22,1.25,3.07,1.25,2.46,0,3.2-.1,3.93-.48s1-1.12,1.89-4.29c.07-.19.45-.19.45,0,0,1-.06,2.27-.06,3.13,0,.52.09.61.35.71a1,1,0,0,1,.73,1.05c0,.68-.41,1.25-2,1.6a27.55,27.55,0,0,1-5.57.36c-4.22,0-5.21-.48-5.21-2.72,0-.61,0-1.48,0-5,0-2.53,0-3.87-.13-5.41,3.46.48,3.52.55,3.52.93s-.19.51-1,.83Z"/><path class="k" d="M86.62,219.29c1.67-2,1.92-2.15,2.11-2.15s.45.16,2.12,1.54c.8.7,1,.93,1,1.12s-.1.29-.42.29H66.27a19.76,19.76,0,0,0-2.72.19l-.32-1.22a17.21,17.21,0,0,0,3,.23H75V200.05a59.35,59.35,0,0,0-.19-6.49c3.45.32,3.84.61,3.84,1s-.23.54-1.19.9V205h6.43c1.57-2,1.83-2.11,2-2.11s.45.13,2.14,1.6c.74.64.87.8.87,1s-.1.28-.42.28h-11v13.48Z"/><path class="k" d="M101.44,209c0,8.07.06,9.25.06,10.5a2.76,2.76,0,0,1-.7,2,2.8,2.8,0,0,1-2.08.77c-.29,0-.42-.16-.45-.61-.09-.89-.51-1.34-2.78-1.92-.16,0-.16-.41,0-.41,1.5.12,2.46.19,3.2.19.38,0,.48-.1.48-.51v-9.06c-.67.35-1.41.67-2.15,1-.16.87-.32,1.15-.64,1.15s-.48-.25-1.37-3.13c.54-.07,1-.16,1.76-.29s1.6-.35,2.4-.58v-7.13h-2a9.35,9.35,0,0,0-1.82.16L95,199.86a8.57,8.57,0,0,0,2.14.26h2V199a46.39,46.39,0,0,0-.16-6.14c2.84.32,3.49.51,3.49,1,0,.26-.23.51-1.06.83v5.41h.64c.83-1.38,1.12-1.54,1.31-1.54s.42.16,1.47,1.16c.39.41.55.67.55.86s-.1.32-.42.32h-3.55v6.43c1.06-.35,2.14-.74,3.29-1.22.17-.06.29.29.17.39-1.25.83-2.37,1.57-3.46,2.17Zm18.37-10.17c1.28-1.57,1.5-1.73,1.69-1.73s.48.16,1.83,1.28c.6.51.73.67.73.9s-.13.35-.48.35H108.13c0,1.09,0,2.17,0,3.32a56.28,56.28,0,0,1-.71,8.64,17.72,17.72,0,0,1-5,10c-.17.16-.55-.06-.42-.26a21.69,21.69,0,0,0,3.17-8.6,59.26,59.26,0,0,0,.64-9.64,40.81,40.81,0,0,0-.23-5.63,17.87,17.87,0,0,1,2.88,1.35H113V196a24,24,0,0,0-.16-2.91c3.17.32,3.52.58,3.52,1s-.22.51-1.06.86v3.91Zm-10.4,19.42a64.3,64.3,0,0,0,3.52-12.7,23.58,23.58,0,0,0,.35-3.75c3.07.74,3.65,1,3.65,1.41s-.16.54-1.12.7a54.57,54.57,0,0,1-5.41,14.28c3.2-.16,6.33-.45,9.5-.9a23.19,23.19,0,0,0-3.07-6.4c-.1-.16.19-.38.35-.26,3.59,3,5.92,6.53,5.92,8.87,0,1.09-.51,1.85-1.34,1.85-.64,0-1-.41-1.25-1.76a16.63,16.63,0,0,0-.38-1.63,67.55,67.55,0,0,1-11.24,2.66c-.22.73-.44,1-.7,1s-.64-.54-1.12-3.45a15.79,15.79,0,0,0,2,.06Z"/><path class="k" d="M142.24,202.87a21.8,21.8,0,0,0,5.82,10.94,22,22,0,0,0,8.13,5.09c.16.07.1.29-.06.35a2.5,2.5,0,0,0-1.67,1.8c-.13.35-.29.51-.51.51a4.43,4.43,0,0,1-1.7-.87,24.32,24.32,0,0,1-6-5.66,26.3,26.3,0,0,1-4.55-11.55c-.67,5-1.95,8.19-4.09,11-2.53,3.3-5.76,5.6-10.66,7.33-.22.07-.41-.38-.22-.48a22.59,22.59,0,0,0,10.14-9.89,24.55,24.55,0,0,0,2.4-8.54h-9.08a19.68,19.68,0,0,0-2.66.19l-.32-1.21a20.42,20.42,0,0,0,3,.22h9.12a63.26,63.26,0,0,0,.28-6.37,22.18,22.18,0,0,0-.12-2.33c3.26.48,3.77.67,3.77,1.12,0,.29-.16.48-1.09.86,0,1.25,0,2.43-.09,3.55s-.13,2.18-.23,3.17h9.06c1.57-1.89,1.79-2.08,2-2.08s.52.19,2.12,1.51c.7.6.86.86.86,1.05s-.1.32-.42.32Z"/><path class="k" d="M173.91,201.86a13.09,13.09,0,0,1-.86,3.86,33.29,33.29,0,0,1-4.72,8.55c-.93,1.19-2,2.14-3.33,2.14a3,3,0,0,1-2.48-1.32,7.25,7.25,0,0,1-1.52-4.88,12,12,0,0,1,3.1-7.79,14.14,14.14,0,0,1,10.57-4.32,12.12,12.12,0,0,1,7.65,2.54,9.8,9.8,0,0,1,.1,15.21c-2.44,2.11-7,3.5-11,3.7a.47.47,0,0,1-.46-.4c0-.26.16-.36.59-.46a18.37,18.37,0,0,0,9-4.19,9.34,9.34,0,0,0,3-6.83,8.35,8.35,0,0,0-2.77-6.31,9.57,9.57,0,0,0-6.14-2.14,15.83,15.83,0,0,0-1.75.06A3.9,3.9,0,0,1,173.91,201.86Zm-8.32.79a10.29,10.29,0,0,0-2.87,7.13,5.73,5.73,0,0,0,.72,3.07A1.86,1.86,0,0,0,165,214c.69,0,1.35-.59,2.31-1.88a35,35,0,0,0,4.71-8.58,7.2,7.2,0,0,0,.47-2.61,2.08,2.08,0,0,0-.53-1.52A11.68,11.68,0,0,0,165.59,202.65Z"/><path class="k" d="M197.63,212.88c0,.66,0,1.69.1,2.18a1.41,1.41,0,0,0,.69,1.06,6.63,6.63,0,0,0,2.94.39,31.3,31.3,0,0,0,6.41-.59,6.5,6.5,0,0,1,1.74-.33c1.42,0,2.15.53,2.15,1.42,0,.53-.46.86-1.09,1a18.25,18.25,0,0,1-2.71.33c-1.71.13-3.59.23-5.31.2-3.2,0-4.75-.43-5.58-1.19a3.6,3.6,0,0,1-1.05-1.68,10.54,10.54,0,0,1-.27-2.74c0-3.73.07-7.43.07-11.16,0-.89-.1-1.38-.63-1.68a3.79,3.79,0,0,0-1.19-.53c-.19-.06-.33-.16-.33-.33s1-.63,1.42-.63a5,5,0,0,1,2.31.86c1.09.63,1.55,1.22,1.55,1.78a1.22,1.22,0,0,1-.43.93c-.33.33-.39.56-.49,1.58s-.17,2.74-.2,4.62a37.12,37.12,0,0,0,5.22-1.88,31.1,31.1,0,0,0,4-2c.29-.2.39-.3.39-.56s-.33-.57-.72-.9c-.23-.19-.4-.33-.4-.46s.3-.33.83-.33a3.91,3.91,0,0,1,2.24,1.09c.83.69,1.32,1.32,1.29,1.85,0,.36-.17.66-.89.79a7.37,7.37,0,0,0-1.13.36c-1.65.66-3.26,1.29-4.85,1.79a48.45,48.45,0,0,1-5.94,1.38C197.7,210.64,197.63,211.83,197.63,212.88Zm12.48-14.65a7.39,7.39,0,0,1,2.87,1.65,2.82,2.82,0,0,1,1.25,2,.92.92,0,0,1-.92,1c-.43,0-.79-.3-1.09-.89a11.35,11.35,0,0,0-2.77-3.17.52.52,0,0,1-.23-.33.33.33,0,0,1,.36-.33A2,2,0,0,1,210.11,198.23ZM213,196a7.72,7.72,0,0,1,2.64,1.28c.79.57,1.52,1.32,1.52,2.08a.94.94,0,0,1-.89,1.06c-.43,0-.7-.17-1.06-.79a9.87,9.87,0,0,0-3-3.1.41.41,0,0,1-.23-.34.34.34,0,0,1,.33-.33A4.09,4.09,0,0,1,213,196Z"/><path class="k" d="M224.63,205.65c1.61.63,2.44,1.42,2.44,2.48a1.35,1.35,0,0,1-1.39,1.52c-.39,0-.79-.43-1.25-1a10.92,10.92,0,0,0-3.34-2.91.5.5,0,0,1-.32-.46c0-.2.23-.36.79-.36A10.87,10.87,0,0,1,224.63,205.65Zm2.64,13.44a1.54,1.54,0,0,1-1.09.66c-.56,0-1-.2-2-1.29a4.67,4.67,0,0,1-1.48-2.67c0-.53.16-1,.4-1s.39.29.62.59c.4.46,1.06,1.22,1.62,1.22a3.68,3.68,0,0,0,1.65-.56,74.63,74.63,0,0,0,9.21-6,90.49,90.49,0,0,0,7.62-6.64c.37-.33.6-.62.76-.62s.5.19.5.39a1.15,1.15,0,0,1-.3.7,44.61,44.61,0,0,1-7.33,7.59,71.31,71.31,0,0,1-9.37,6.89A2.47,2.47,0,0,0,227.27,219.09ZM229,199.15c1.22.63,1.94,1.45,1.94,2.44a1.45,1.45,0,0,1-1.35,1.62c-.53,0-.79-.36-1.32-1.25a10.73,10.73,0,0,0-3.1-3.14c-.2-.13-.3-.23-.3-.43s.26-.33.63-.33A9,9,0,0,1,229,199.15Zm11.22-3a7.52,7.52,0,0,1,2.87,1.65c.79.7,1.25,1.29,1.25,2a.92.92,0,0,1-.92,1c-.43,0-.79-.29-1.09-.89a11.68,11.68,0,0,0-2.77-3.17.52.52,0,0,1-.23-.33.34.34,0,0,1,.36-.33A2,2,0,0,1,240.24,196.18Zm2.87-2.21a7.76,7.76,0,0,1,2.64,1.29c.79.56,1.52,1.32,1.52,2.08a.93.93,0,0,1-.89,1c-.43,0-.7-.16-1.06-.79a10,10,0,0,0-3-3.1.41.41,0,0,1-.23-.33.33.33,0,0,1,.33-.33A3.9,3.9,0,0,1,243.11,194Z"/><path class="k" d="M263,209.12a51.86,51.86,0,0,1-11.68,8.42,3.72,3.72,0,0,1-1.09.42.41.41,0,0,1-.37-.42.76.76,0,0,1,.4-.6,65.84,65.84,0,0,0,9.18-7.16,58.33,58.33,0,0,0,6.73-7.06,1.21,1.21,0,0,0,.3-.46c0-.07-.07-.1-.17-.1a3.86,3.86,0,0,0-.49.1c-3.17.75-5.42,1.41-7.89,2.24a3.53,3.53,0,0,0-1.06.49,1.34,1.34,0,0,1-.79.37c-.69,0-1.19-.37-2-1.36a2.81,2.81,0,0,1-.8-1.65c0-.66.17-.95.33-.95s.24.19.43.39a3,3,0,0,0,1.79,1.22,6.31,6.31,0,0,0,1.51-.23c3-.59,5.42-1.15,8.25-1.81a1.87,1.87,0,0,0,1.13-.63,1.07,1.07,0,0,1,.82-.46c.33,0,.73.16,1.49.79s1.25,1.09,1.25,1.59-.23.56-.82.75a3,3,0,0,0-1.32,1c-1.16,1.32-2.31,2.48-3.67,3.76.4.37.66.66.66,1a3.22,3.22,0,0,1-.06.5,3,3,0,0,0,0,.56c0,1.68,0,4,0,5.64,0,2.15.1,4.49.1,5.45s-.39,1.29-1.09,1.29a1.33,1.33,0,0,1-1.15-1,4.94,4.94,0,0,1-.43-1.91,2.92,2.92,0,0,1,.23-.93,4.22,4.22,0,0,0,.2-1.52c0-.89.1-1.84.1-2.8Zm.83-14.46c1.25.6,2.5,1.59,2.5,2.91,0,1-.49,1.52-1.25,1.52s-1-.37-1.35-1.13a10.49,10.49,0,0,0-2.81-3.2c-.3-.2-.49-.33-.49-.53s.16-.29.46-.29A6.69,6.69,0,0,1,263.87,194.66ZM272,209.19c1.55.79,2.7,1.84,2.7,3.07a1.47,1.47,0,0,1-1.35,1.58c-.49,0-.92-.33-1.39-1.09a12.47,12.47,0,0,0-4.25-4c-.17-.09-.33-.26-.33-.39a.42.42,0,0,1,.49-.33A11.32,11.32,0,0,1,272,209.19Z"/><path class="k" d="M301.52,213.61c1.15,1.12,2.05,2.21,2.05,3.1a1.28,1.28,0,0,1-1.36,1.39c-.46,0-.89-.3-1.42-1a24,24,0,0,0-7.82-7.32,34.29,34.29,0,0,1-6.43,5.58,31.54,31.54,0,0,1-6.44,3.36,2.78,2.78,0,0,1-.89.23.42.42,0,0,1-.36-.39.57.57,0,0,1,.33-.47,42.14,42.14,0,0,0,16.93-16.47.62.62,0,0,0,.13-.29c0-.07-.07-.07-.27-.07a84.64,84.64,0,0,0-8.61,1.26,4.07,4.07,0,0,0-1.35.43,1.72,1.72,0,0,1-1,.33,3.2,3.2,0,0,1-2.05-1.52,3.3,3.3,0,0,1-.89-1.88c0-.33.17-.7.33-.7s.37.2.56.4c.86.82,1.46,1.25,2.18,1.25.53,0,1.65-.1,2.61-.2,2.57-.26,5.31-.52,7.72-.85a1.75,1.75,0,0,0,1.12-.5,1.09,1.09,0,0,1,.8-.36c.49,0,.86.16,1.55.79.89.83,1.15,1.19,1.15,1.58s-.16.47-.82.73a3.06,3.06,0,0,0-1.39,1.22A54.89,54.89,0,0,1,293.7,209,25.38,25.38,0,0,1,301.52,213.61Z"/><path class="k" d="M317.09,204.2c-.33-.23-.39-.29-.39-.43s.46-.39.82-.39a3.73,3.73,0,0,1,1.92.79c1,.69,1.94,1.62,1.94,2.47,0,.53-.26.8-.82,1a2.69,2.69,0,0,0-.89.7,40.74,40.74,0,0,1-4.49,3.93,28.18,28.18,0,0,1-5.91,3.43,2.11,2.11,0,0,1-.82.26.41.41,0,0,1-.43-.43c0-.19.16-.33.49-.52a44.84,44.84,0,0,0,5.45-4.2,34.8,34.8,0,0,0,3.3-3.56c.62-.83.92-1.32.92-1.75S317.88,204.76,317.09,204.2Zm16.74,8.52c-.7,0-1.13-.46-1.49-1.26a19.53,19.53,0,0,0-2.8-4.65,17.86,17.86,0,0,0-3.4-3.1c-.4-.27-.6-.46-.6-.63a.39.39,0,0,1,.4-.4,2.79,2.79,0,0,1,.92.27,18.79,18.79,0,0,1,5.35,3.4c1.45,1.28,3,3.33,3,4.65C335.21,212.12,334.82,212.72,333.83,212.72Zm2.87-13.5a3,3,0,1,1-3-3A3,3,0,0,1,336.7,199.22Zm-4.95,0a1.95,1.95,0,1,0,1.94-1.95A1.93,1.93,0,0,0,331.75,199.22Z"/><path class="k" d="M345.37,210.57c-.66,0-1.45-.72-2.31-1.91a3.37,3.37,0,0,1-.76-1.72c0-.43.07-.82.3-.82s.3.16.53.39c1.15,1.12,1.62,1.36,2.38,1.36s1.94-.07,4.19-.2c4.49-.27,8.94-.43,11.75-.53a4.21,4.21,0,0,0,2-.4,2.47,2.47,0,0,1,1-.23,4.37,4.37,0,0,1,1.36.3c1.55.59,1.75,1,1.75,1.55s-.43,1-1.16,1c-1.25,0-3-.13-4.65-.13-2.94,0-8.78.2-13.11.56a6.84,6.84,0,0,0-2.27.5A1.75,1.75,0,0,1,345.37,210.57Z"/><path class="k" d="M379.46,211.92c0,1.92.1,5.88.1,8,0,1-.43,1.32-.92,1.32a1.14,1.14,0,0,1-1.06-.66,5.55,5.55,0,0,1-.72-2.44,3.63,3.63,0,0,1,.23-.89,7.76,7.76,0,0,0,.16-1.55c.07-1.78.1-3.2.13-6.31s0-6.23,0-9.27a12.19,12.19,0,0,0-.17-2.54,1.25,1.25,0,0,0-.66-.69,5.48,5.48,0,0,0-1.25-.5c-.23-.07-.33-.17-.33-.3s.16-.26.33-.36a2.23,2.23,0,0,1,1-.33,6.25,6.25,0,0,1,2.68.79c.79.4,1.32.93,1.32,1.52a1.58,1.58,0,0,1-.47,1,1.92,1.92,0,0,0-.29,1.16c-.07,1.25-.14,3.17-.14,5.54a19.89,19.89,0,0,1,5.48,1.26c2.31.95,3.24,2,3.24,3.2,0,.89-.53,1.38-1.06,1.38s-.92-.19-1.65-1a13.53,13.53,0,0,0-6-3.79Z"/><path class="k" d="M406.59,200.64c0-.79,0-1.59,0-2.61a1.44,1.44,0,0,0-.46-1.15,4.7,4.7,0,0,0-1.75-.47c-.2,0-.33-.1-.33-.26s.23-.36.46-.5a2,2,0,0,1,1.29-.39,7.27,7.27,0,0,1,2.67.72c.89.4,1.32.86,1.32,1.32a1,1,0,0,1-.43.86c-.33.33-.3.53-.33,1.16,0,1.22-.1,2.9-.13,4.62,1.95-.13,3.63-.3,5.48-.43a2.42,2.42,0,0,0,1.09-.3,1.84,1.84,0,0,1,.85-.23,7,7,0,0,1,2.61.73,1.32,1.32,0,0,1,.89,1.09.85.85,0,0,1-1,.89,15.22,15.22,0,0,1-1.75-.17,27.26,27.26,0,0,0-3.3-.13c-1.49,0-3,0-5,.17a20.15,20.15,0,0,1-2,8.28,16.21,16.21,0,0,1-8.35,7.59,2.24,2.24,0,0,1-.92.26.38.38,0,0,1-.4-.36c0-.23.13-.36.46-.56a18.48,18.48,0,0,0,7.13-7.49,19.71,19.71,0,0,0,1.85-7.66c-2.61.23-4.39.46-6.37.76a9.15,9.15,0,0,0-2.41.66,1.78,1.78,0,0,1-1.09.33c-.59,0-1.22-.46-2.17-1.42a2.92,2.92,0,0,1-1-1.71c0-.4.13-.66.26-.66s.26.13.56.36a3.22,3.22,0,0,0,2.38,1c.56,0,1.38,0,2-.1,2.54-.26,4.65-.46,7.86-.76C406.56,202.72,406.59,201.36,406.59,200.64Z"/><path class="k" d="M428.86,210.57c-.66,0-1.45-.72-2.31-1.91a3.37,3.37,0,0,1-.76-1.72c0-.43.07-.82.3-.82s.3.16.53.39c1.15,1.12,1.62,1.36,2.38,1.36s1.94-.07,4.19-.2c4.49-.27,8.94-.43,11.75-.53a4.21,4.21,0,0,0,2-.4,2.47,2.47,0,0,1,1-.23,4.37,4.37,0,0,1,1.36.3c1.55.59,1.75,1,1.75,1.55s-.43,1-1.16,1c-1.25,0-3-.13-4.65-.13-2.94,0-8.78.2-13.11.56a6.84,6.84,0,0,0-2.27.5A1.75,1.75,0,0,1,428.86,210.57Z"/><path class="k" d="M468,213.67c0,3.27,0,3.73.33,4.33s1.42.69,2.68.82c.26,0,.33.1.33.43s-.07.43-.33.43c-1.42-.1-3.14-.13-4.46-.13s-3.14,0-4.42.13c-.23,0-.27,0-.27-.43s.07-.39.27-.43c1.19-.1,2-.13,2.44-.82s.36-2.15.36-4.33V202c0-3.14,0-3.5-.33-4.23s-1.52-.66-2.74-.79c-.23,0-.29-.06-.29-.43s.06-.49.29-.49c1.39.1,3.2.16,4.56.16s3.3-.2,5.44-.2c6.51,0,8.75,2.55,8.75,6.21,0,3.5-2.15,6.7-10,6.7a21.21,21.21,0,0,1-2.58-.13Zm0-6.1a13.76,13.76,0,0,0,2.44.2c5,0,6.77-2.45,6.77-5.45,0-3.43-2.24-5.21-6-5.21-1,0-2.28.06-2.71.69s-.46,2.34-.46,4.12Z"/><path class="k" d="M488.49,213.64c0,3.27,0,3.73.37,4.39s1.32.66,2.54.79c.26,0,.33.1.33.47s-.07.39-.33.39c-1.42-.06-3-.13-4.39-.13s-3,.07-4.29.13c-.26,0-.33-.1-.33-.39s.07-.43.33-.47c1.12-.13,2-.16,2.41-.79s.39-2.21.39-4.39V201.92c0-3.13,0-3.49-.36-4.19s-1.52-.69-2.77-.82c-.2,0-.27-.07-.27-.4s.07-.49.27-.49c1.42.06,3.13.13,4.45.13s3.27-.17,5.42-.17c6,0,8.45,2.64,8.45,6,0,2.44-1.59,4.85-5.32,5.88,1.32,2.54,2.84,5.24,4.59,8a7.61,7.61,0,0,0,2,2.47,5.47,5.47,0,0,0,2,.46c.2,0,.27.1.27.43s-.1.43-.3.43c-1.22-.06-2.18-.13-3.13-.13s-1.49,0-2.48,0a23.47,23.47,0,0,0-1.22-2.54c-1.62-2.9-3.2-5.78-4.79-8.68-.39,0-1,.07-1.45.07-.82,0-1.58,0-2.38-.1Zm0-6.43a19.8,19.8,0,0,0,2.38.16c4.69,0,6.44-2.34,6.44-5.18,0-3.24-1.79-5.08-5.75-5.08-1.09,0-2.21,0-2.64.62s-.43,2.38-.43,4.19Z"/><path class="k" d="M528.26,201.52a21.84,21.84,0,0,0,7.23,2.92c.15,0,.09.34-.06.37-.78.09-1.24.59-1.65,1.83-.09.34-.25.46-.46.46a3.77,3.77,0,0,1-1.24-.52A25.52,25.52,0,0,1,520.79,195c-3.19,5.67-7.5,9.52-14.26,12.56-.19.09-.41-.34-.22-.47a32.7,32.7,0,0,0,10.88-10.94,20.83,20.83,0,0,0,1.65-3.63c3.13.9,3.56,1.11,3.56,1.46s-.21.4-1.08.59A22.48,22.48,0,0,0,528.26,201.52Zm-8.83,8.81a46,46,0,0,1-4.69,7.22c4.1-.06,8.19-.31,12.25-.68a15.37,15.37,0,0,0-3.25-4c-.13-.09.06-.37.21-.31,4,1.67,6.73,4.46,6.73,6.51a1.43,1.43,0,0,1-1.27,1.58c-.65,0-.87-.25-1.46-1.73a12,12,0,0,0-.62-1.4A118.56,118.56,0,0,1,510.81,220c-.25.9-.41,1.12-.72,1.12s-.46-.16-1.33-3.69a21,21,0,0,0,2.91.15c.72,0,1.37,0,2,0a32.25,32.25,0,0,0,2.6-7.22H510.4a13.83,13.83,0,0,0-2.14.18l-.31-1.17a12,12,0,0,0,2.45.21h18.89c1.39-1.67,1.61-1.8,1.79-1.8s.44.13,1.93,1.34c.65.55.8.77.8,1s-.12.28-.4.28Zm-5.89-6.27a10.35,10.35,0,0,0,2.32.22h6.79c1.24-1.46,1.46-1.61,1.64-1.61s.41.15,1.71,1.24c.59.46.74.65.74.87s-.12.28-.43.28H515.83a12.41,12.41,0,0,0-2,.18Z"/><path class="k" d="M543.57,213.34c0,3.57.07,5.52.1,7.72,0,.72-.41,1.09-1.49,1.09-.68,0-.93-.31-.93-1,.06-1.34.12-3.57.15-8.1,0-1.24,0-2.48,0-3.72a24.69,24.69,0,0,1-5,3c-.18.1-.46-.31-.28-.43a28.24,28.24,0,0,0,9.43-11.13h-6.05a9.47,9.47,0,0,0-2.26.21l-.31-1.24a11.18,11.18,0,0,0,2.57.25h1.83v-3.59a20,20,0,0,0-.18-2.83c3.13.38,3.44.62,3.44,1s-.25.5-1.09.84v4.62h2c.8-1,1-1,1.18-1s.37.09,1.39,1.15c.44.46.53.65.53.86s-.25.44-1,.65a24.15,24.15,0,0,1-3.91,5.62c3.29,1,5.08,2.41,5.08,3.9a1.18,1.18,0,0,1-1.08,1.24c-.53,0-.81-.24-1.15-1.05a8.7,8.7,0,0,0-3-3.6Zm17,6.27c1.51-1.9,1.73-2,1.95-2s.46.09,2,1.46c.75.62.87.83.87,1s-.12.31-.43.31H548.6a16.22,16.22,0,0,0-2.48.19l-.31-1.18a14.53,14.53,0,0,0,2.69.22h5.62v-13.8H550.4a13.64,13.64,0,0,0-2.18.18l-.34-1.17a11.88,11.88,0,0,0,2.42.21h3.82v-4.68c0-3.22,0-5.18-.16-6.32,3.26.34,3.63.58,3.63,1s-.25.52-1.15.86V205h3.72c1.43-1.67,1.68-1.83,1.86-1.83s.41.16,1.83,1.37c.65.56.81.74.81,1s-.1.28-.41.28h-7.81v13.8Z"/></svg>