<!--?xml version="1.0" encoding="utf-8"?-->
<!-- Generator: Adobe Illustrator 18.0.0, SVG Export Plug-In . SVG Version: 6.00 Build 0)  -->

<svg version="1.1" id="_x31_0" xmlns="http://www.w3.org/2000/svg" xmlns:xlink="http://www.w3.org/1999/xlink" x="0px" y="0px" viewBox="0 0 512 512" style="width: 256px; height: 256px; opacity: 1;" xml:space="preserve">
<style type="text/css">
	.st0{fill:#374149;}
</style>
<g>
	<path class="st0" d="M329.871,151.742c-0.203-0.137-0.402-0.293-0.61-0.43c-3.195-2.129-6.48-4.066-9.832-5.898
		c-0.625-0.344-1.242-0.691-1.871-1.023c-3.262-1.719-6.582-3.286-9.973-4.719c-0.691-0.293-1.386-0.566-2.082-0.847
		c-3.485-1.402-7.004-2.688-10.602-3.79c-0.402-0.121-0.813-0.218-1.211-0.339c-14.305-4.223-29.386-6.028-44.828-5.227
		c-1.246,0.066-2.484,0.161-3.73,0.262c-2.141,0.168-4.266,0.171-6.414,0.441c-23.378,2.946-45.683,12.278-64.187,26.867
		c-32.746,25.813-51.07,63.778-51.07,104.586c0,43.398,17.91,79.695,54.75,110.89c4.382,3.703,8.086,17.981,10.773,28.414
		c3.867,14.984,8.68,33.496,20.082,44.824c2.222,2.211,5.289,3.363,8.426,3.363h77.02c3.133,0,6.203-1.152,8.426-3.367
		c11.367-11.309,16.183-29.84,20.082-44.82c2.719-10.434,6.422-24.711,10.774-28.414c36.836-31.195,54.746-67.492,54.746-110.89
		c0-35.41-13.762-68.684-38.809-93.73C343.61,161.773,336.894,156.484,329.871,151.742z M311.836,346.586
		c-12.606,10.672-17.23,28.512-21.715,45.778c-3.058,11.894-7.714,29.839-13.254,29.839h-41.699
		c-5.539,0-10.195-17.945-13.289-29.839c-4.454-17.266-9.106-35.106-21.68-45.778c-29.16-24.707-42.754-51.691-42.754-84.961
		c0-26.34,10.262-51.082,28.886-69.703c18.625-18.59,43.363-28.852,69.668-28.852c26.34,0,51.082,10.262,69.703,28.852
		c18.625,18.621,28.851,43.363,28.851,69.703C354.554,294.895,340.996,321.879,311.836,346.586z" style="fill: rgb(225, 187, 97);"></path>
	<path class="st0" d="M211.82,464.172c0,24.398,19.782,44.18,44.18,44.18c23.969,0,43.434-19.102,44.117-42.906
		c0.012-0.375,0.059-0.738,0.063-1.117h-0.008c0-0.051,0.008-0.106,0.008-0.157H211.82z" style="fill: rgb(225, 187, 97);"></path>
	<path class="st0" d="M256,73.406c4.274,0,7.738-3.465,7.738-7.738l4.312-49.972c0-6.653-5.398-12.047-12.05-12.047
		c-6.656,0-12.05,5.394-12.05,12.047l4.312,49.972C248.262,69.941,251.726,73.406,256,73.406z" style="fill: rgb(225, 187, 97);"></path>
	<path class="st0" d="M124.305,117.012L92.019,78.629c-0.382-0.383-0.878-0.543-1.297-0.864c-0.449-0.343-0.91-0.648-1.394-0.926
		c-0.934-0.523-1.863-0.906-2.875-1.164c-0.43-0.11-0.859-0.191-1.301-0.254c-1.113-0.157-2.187-0.157-3.304,0
		c-0.442,0.062-0.871,0.144-1.301,0.254c-1.012,0.258-1.942,0.641-2.871,1.164c-0.489,0.278-0.95,0.582-1.394,0.926
		c-0.422,0.321-0.918,0.481-1.301,0.864c-4.703,4.706-4.703,12.336,0,17.042l38.382,32.282c3.02,3.023,7.922,3.023,10.942,0
		C127.328,124.93,127.328,120.032,124.305,117.012z" style="fill: rgb(225, 187, 97);"></path>
	<path class="st0" d="M62.016,251.91l-49.966-4.309c-6.656,0-12.05,5.395-12.05,12.047c0,6.656,5.394,12.05,12.05,12.05
		l49.966-4.312c4.277,0,7.742-3.465,7.742-7.738C69.758,255.375,66.293,251.91,62.016,251.91z" style="fill: rgb(225, 187, 97);"></path>
	<path class="st0" d="M435.718,77.765c-0.445-0.343-0.906-0.648-1.39-0.922c-0.934-0.527-1.863-0.91-2.878-1.168
		c-0.426-0.11-0.86-0.191-1.298-0.254c-1.117-0.157-2.191-0.157-3.304,0c-0.442,0.062-0.875,0.144-1.301,0.254
		c-1.008,0.258-1.938,0.637-2.867,1.16c-0.489,0.278-0.958,0.586-1.41,0.938c-0.414,0.317-0.91,0.477-1.289,0.856l-32.286,38.382
		c-3.023,3.02-3.023,7.918,0,10.942c3.02,3.023,7.922,3.023,10.946,0l38.378-32.282c4.707-4.706,4.707-12.336,0-17.042
		C436.637,78.246,436.137,78.086,435.718,77.765z" style="fill: rgb(225, 187, 97);"></path>
	<path class="st0" d="M499.95,247.601l-49.966,4.309c-4.277,0-7.742,3.465-7.742,7.738c0,4.274,3.465,7.738,7.742,7.738
		l49.966,4.312c6.656,0,12.05-5.394,12.05-12.05C512,252.996,506.606,247.601,499.95,247.601z" style="fill: rgb(225, 187, 97);"></path>
</g>
</svg>
