<?xml version="1.0" encoding="utf-8"?>
<!-- Generator: Adobe Illustrator 24.1.2, SVG Export Plug-In . SVG Version: 6.00 Build 0)  -->
<svg version="1.1" id="レイヤー_1" xmlns="http://www.w3.org/2000/svg" xmlns:xlink="http://www.w3.org/1999/xlink" x="0px"
	 y="0px" viewBox="0 0 595.3 229.5" style="enable-background:new 0 0 595.3 229.5;" xml:space="preserve">
<style type="text/css">
	.st0{fill:#232F73;}
	.st1{fill:#222F73;}
	.st2{fill:#243074;}
	.st3{fill:#C7A54E;}
	.st4{fill:#C7A44D;}
	.st5{fill:#C6A44D;}
	.st6{fill:#C8A651;}
	.st7{fill:#C9A854;}
	.st8{fill:#202D72;}
</style>
<path class="st0" d="M493.8,50.9c0.2,0.7,0.4,1.4,0.7,2.1c13.9,31.8,27.7,63.7,41.6,95.5c1.3,2.8,2.7,5.6,4.3,8.2
	c2.4,4.4,6.7,7.3,11.6,8c3.2,0.4,3.7,1.8,2.9,4.6h-55.3v-3.8c2.1-0.1,4.2-0.3,6.3-0.5c6.7-0.6,9.4-4.1,8-10.6
	c-0.7-3.2-1.7-6.3-2.9-9.4c-2.8-7-5.9-14-8.8-21c-0.4-1.3-1.6-2.1-2.9-1.9c-17.7,0.1-35.4,0.1-53.1,0c-1.4-0.2-2.7,0.7-3,2.1
	c-3,7.7-6.1,15.3-9,23c-1,2.7-1.7,5.5-2,8.4c-0.4,4.6,1.7,7.6,6.3,8.6c2.8,0.7,5.7,0.9,8.7,1.3v3.7H404v-3.7
	c0.2-0.1,0.3-0.3,0.5-0.3c7.4-0.5,12.4-4.6,15.3-11c5.5-12,10.9-24,16-36.2c8.7-20.5,17.3-41.1,25.9-61.6c0.4-0.9,0.6-1.8,0.9-2.7
	c2-4.7,4-9.5,6-14.2c2.2-5.1,4.5-10.2,6.7-15.4c0.6-1.5,1.3-2.4,3.2-2.4s2.6,0.8,3.2,2.4c2.2,5.1,4.5,10.2,6.8,15.3L493.8,50.9z
	 M498.2,113c-8.4-20-16.7-39.7-25.3-60.1L447.8,113H498.2z"/>
<path class="st1" d="M324.7,54.5V33.3c-9.7,0.6-19.2,0.8-28.6,2c-6.7,0.8-11.3,5.2-13.7,11.5c-1.3,3.6-2.4,7.3-3.2,11
	c-1.1,4.4-1,4.5-6.1,3.5c0.5-12.1,1-24.2,1.5-36.5h122.8c0.3,6.2,0.7,12.4,1.1,18.6c0.2,5.8,0.4,11.5,0.6,17.3l-5.6,0.6
	c-1.1-5.8-2.1-11.7-5.4-16.8c-1.9-4.8-5.7-7.5-10.4-8.9c-9.9-2.9-20.1-1.5-30.3-1.9v16.5v17.4c0,5.5-0.1,11-0.1,16.6
	c0,21,0,41.9,0,62.9c0,2.5,0.2,5,0.6,7.5c0.7,4.7,3.5,7.9,8.2,8.9c3.9,0.8,7.9,1.2,12,1.8v3.7h-63.6v-3.9c2.9-0.4,5.8-0.6,8.6-1
	c7.6-1.2,10.5-4.3,11.3-12c0.3-2.9,0.5-5.8,0.5-8.7c0-24,0-48.1,0-72.1C324.7,65.8,324.7,60.2,324.7,54.5z"/>
<path class="st1" d="M26.6,24.8h61.5v3.9c-3.3,0.5-6.6,0.7-9.8,1.4c-6.8,1.4-9.6,4.5-10.3,11.4c-0.3,3.2-0.4,6.3-0.4,9.5
	c0,32.6,0,65.2,0,97.8c0,9,1.9,11.4,10.8,11.6c12.2,0.2,24.5,0.3,36.7-0.6c13.6-1,23.6-8.2,29.7-20.6c0.7-1.4,1.4-2.7,2.1-4
	c2.2-4.5,2.2-4.5,7.6-3.8c-3.1,11.2-6.2,22.4-9.2,33.5c-1.2,4.4-1.2,4.4-5.9,4.4H26.5v-4.1c2.4-0.3,4.8-0.6,7.2-1
	c7.3-1.2,10.4-4.5,11.2-11.9c0.3-3,0.5-6,0.5-9c0-31.1,0-62.2,0-93.3c0-3.9-0.3-7.8-0.9-11.7c-0.6-4.2-3.3-6.9-7.3-8
	c-2.5-0.6-4.9-1.1-7.4-1.4C26.1,28.7,26.1,28.8,26.6,24.8z"/>
<path class="st2" d="M220.5,90.7c-0.1,6-0.1,12-0.1,18c0,12-0.1,24,0,36c0,3.3,0.3,6.5,0.8,9.8c0.8,5.1,3.8,8.3,8.8,9.4
	c3.8,0.8,7.7,1.2,11.7,1.8v3.7h-64.6v-3.8c3.3-0.4,6.6-0.6,9.8-1.1c6.8-1,9.7-4,10.6-10.8c0.3-2.7,0.5-5.4,0.5-8.1
	c0-15.9,0-31.8,0-47.8c0-0.7-0.1-1.3-0.2-2v-8.3c0-15.2,0.2-30.3-0.2-45.5c-0.2-8.3-3.2-10.9-11.5-12.2c-2.9-0.4-5.9-0.7-9-1v-3.9
	h64.6v3.8l-2.4,0.3c-3.3,0.5-6.7,0.8-10,1.5c-4.6,1-7.3,4-8.1,8.6c-0.3,1.2-0.5,2.4-0.5,3.6c-0.1,12.5-0.1,24.9-0.1,37.3
	C220.5,83.6,220.5,87.1,220.5,90.7z"/>
<path class="st3" d="M220.5,90.7c0-3.5,0-7.1,0-10.7c21.3-5.7,42.5-11.6,63.9-17c13.3-3.3,26.8-5.7,40.3-8.5c0,5.7,0,11.3,0,17
	c-12,2-24,3.7-36,5.9c-22.2,4.1-44.4,8.5-66.6,12.8C221.6,90.3,221.1,90.5,220.5,90.7z"/>
<path class="st4" d="M399.1,60.8c-0.2-5.8-0.4-11.5-0.6-17.3c21.7-1.3,43.5-2.7,65.2-4c1.7-0.1,3.4,0,5.1,0c-2,4.7-4,9.5-6,14.2
	L399.1,60.8z"/>
<path class="st5" d="M388.1,44.6c3.3,5.1,4.3,11,5.4,16.8l-46.1,6.4V50.4L388.1,44.6z"/>
<path class="st6" d="M493.8,50.9l-5.2-11.5c9.5,0.3,19.1,0.4,28.6,1c11.5,0.8,23.1,1.9,34.6,3.2c8.6,1,17.1,2.5,25.6,4.4
	c-1.4,0-2.7,0-4.1,0c-20.9,0.6-41.9,1.1-62.8,1.8C505,50,499.4,50.5,493.8,50.9z"/>
<path class="st3" d="M111,145.9c-2.7-12.1-9-20.7-22-23.7c12.4-1.9,19.2-9.4,21.7-21.6c1.9,12.7,8.3,20.7,21.7,21.6
	C118.4,126.3,112.6,132.8,111,145.9z"/>
<path class="st7" d="M197.8,87.4v8.3c-13.6,3.3-27.2,6.6-40.8,10c-6.7,1.7-13.3,3.7-20,5.5c-0.7,0.2-1.5,0.2-2.2,0.1
	C155.4,102.4,176.4,94.3,197.8,87.4z"/>
<path class="st8" d="M30.9,221.5c3.3-1.1,5.3-2.4,6.8-4.2s2.2-4.2,2.2-8.1c0-0.4,0-0.7,0-1.2c2.8,0.2,3.6,0.4,3.6,0.9
	c0,0.3-0.2,0.5-1,0.8c0,0.4-0.1,0.8-0.1,1.2c-0.1,2.1-0.7,4.2-1.8,6c-1.8,2.8-4.9,4.3-9.5,5.1C30.8,222.1,30.7,221.6,30.9,221.5z
	 M35,206.7c-0.2,2.5-1.3,4.1-2.9,4.1c-0.7,0-1.2-0.5-1.2-1.2c0,0,0,0,0,0c0-0.6,0.3-1,1-1.4c1.5-0.8,2.5-2.3,2.5-4
	c0-0.2,0.3-0.1,0.3,0c0.1,0.5,0.2,1.1,0.2,1.6h20.6c1-1.3,1.2-1.4,1.4-1.4s0.5,0.1,1.8,1.4c0.6,0.6,0.8,0.8,0.8,1
	c0,0.5-0.3,0.6-1.3,0.6c-0.4,0-0.5,0.2-1,0.5c-0.8,0.8-1.8,1.4-2.8,2c-0.1,0.1-0.4-0.1-0.3-0.2c0.7-1,1.2-2.1,1.6-3.2L35,206.7z
	 M52.7,201.8c1.4-1.6,1.6-1.7,1.8-1.7s0.5,0.1,1.9,1.3c0.6,0.5,0.8,0.7,0.8,0.9s-0.1,0.3-0.5,0.3h-20c-0.8,0-1.5,0.1-2.3,0.2
	l-0.3-1.2c0.8,0.2,1.7,0.2,2.5,0.2h7.1V198h-9.8c-0.8,0-1.6,0.1-2.3,0.2l-0.3-1.2c0.9,0.2,1.7,0.2,2.6,0.2h9.9v-0.9
	c0-1.1,0-2.2-0.2-3.4c3.3,0.3,3.7,0.6,3.7,0.9s-0.2,0.5-1.1,0.8v2.5H55c1.4-1.7,1.7-1.8,1.9-1.8s0.5,0.1,2,1.3
	c0.7,0.6,0.9,0.8,0.9,1s-0.1,0.3-0.4,0.3H46.1v3.7L52.7,201.8z M49.2,217.9c0,1,0.2,1.2,3.1,1.2c2.5,0,3.2-0.1,3.9-0.5
	s1-1.1,1.9-4.3c0.1-0.2,0.5-0.2,0.5,0c0,1-0.1,2.3-0.1,3.1c0,0.5,0.1,0.6,0.3,0.7c0.5,0.1,0.8,0.6,0.7,1.1c0,0.7-0.4,1.2-2,1.6
	c-1.8,0.3-3.7,0.4-5.6,0.4c-4.2,0-5.2-0.5-5.2-2.7c0-0.6,0-1.5,0-5c0-2.5,0-3.9-0.1-5.4c3.5,0.5,3.5,0.6,3.5,0.9s-0.2,0.5-1,0.8
	L49.2,217.9z"/>
<path class="st8" d="M86.6,219.3c1.7-2,1.9-2.1,2.1-2.1s0.4,0.2,2.1,1.5c0.8,0.7,1,0.9,1,1.1s-0.1,0.3-0.4,0.3H66.3
	c-0.9,0-1.8,0.1-2.7,0.2l-0.3-1.2c1,0.2,2,0.2,3,0.2H75v-19.2c0.1-2.2,0-4.3-0.2-6.5c3.4,0.3,3.8,0.6,3.8,1s-0.2,0.5-1.2,0.9v9.5
	h6.4c1.6-2,1.8-2.1,2-2.1s0.4,0.1,2.1,1.6c0.7,0.6,0.9,0.8,0.9,1s-0.1,0.3-0.4,0.3h-11v13.5L86.6,219.3z"/>
<path class="st8" d="M101.4,209c0,8.1,0.1,9.2,0.1,10.5c0,0.7-0.2,1.5-0.7,2c-0.6,0.5-1.3,0.8-2.1,0.8c-0.3,0-0.4-0.2-0.4-0.6
	c-0.1-0.9-0.5-1.3-2.8-1.9c-0.2,0-0.2-0.4,0-0.4c1.5,0.1,2.5,0.2,3.2,0.2c0.4,0,0.5-0.1,0.5-0.5V210c-0.7,0.4-1.4,0.7-2.2,1
	c-0.2,0.9-0.3,1.1-0.6,1.1s-0.5-0.2-1.4-3.1c0.5-0.1,1-0.2,1.8-0.3s1.6-0.4,2.4-0.6V201h-2c-0.6,0-1.2,0-1.8,0.2l-0.4-1.3
	c0.7,0.2,1.4,0.3,2.1,0.3h2V199c0.1-2,0-4.1-0.2-6.1c2.8,0.3,3.5,0.5,3.5,1c0,0.3-0.2,0.5-1.1,0.8v5.4h0.6c0.8-1.4,1.1-1.5,1.3-1.5
	s0.4,0.2,1.5,1.2c0.4,0.4,0.6,0.7,0.6,0.9s-0.1,0.3-0.4,0.3h-3.6v6.4c1.1-0.4,2.1-0.7,3.3-1.2c0.2-0.1,0.3,0.3,0.2,0.4
	c-1.2,0.8-2.4,1.6-3.5,2.2L101.4,209z M119.8,198.8c1.3-1.6,1.5-1.7,1.7-1.7s0.5,0.2,1.8,1.3c0.6,0.5,0.7,0.7,0.7,0.9
	s-0.1,0.4-0.5,0.4h-15.5c0,1.1,0,2.2,0,3.3c0,2.9-0.3,5.8-0.7,8.6c-0.5,3.8-2.3,7.3-5,10c-0.2,0.2-0.6-0.1-0.4-0.3
	c1.7-2.6,2.7-5.5,3.2-8.6c0.5-3.2,0.7-6.4,0.6-9.6c0.1-1.9,0-3.8-0.2-5.6c1,0.4,2,0.8,2.9,1.4h4.5V196c0-1,0-1.9-0.2-2.9
	c3.2,0.3,3.5,0.6,3.5,1s-0.2,0.5-1.1,0.9v3.9L119.8,198.8z M109.4,218.2c1.6-4.1,2.8-8.4,3.5-12.7c0.2-1.2,0.3-2.5,0.3-3.8
	c3.1,0.7,3.7,1,3.7,1.4s-0.2,0.5-1.1,0.7c-1.1,5-2.9,9.8-5.4,14.3c3.2-0.2,6.3-0.4,9.5-0.9c-0.7-2.3-1.7-4.4-3.1-6.4
	c-0.1-0.2,0.2-0.4,0.3-0.3c3.6,3,5.9,6.5,5.9,8.9c0,1.1-0.5,1.9-1.3,1.9c-0.6,0-1-0.4-1.2-1.8c-0.1-0.5-0.2-1.1-0.4-1.6
	c-3.7,1.2-7.4,2.1-11.2,2.7c-0.2,0.7-0.4,1-0.7,1s-0.6-0.5-1.1-3.4c0.7,0.1,1.3,0.1,2,0.1L109.4,218.2z"/>
<path class="st8" d="M142.2,202.9c0.8,4.1,2.9,7.9,5.8,10.9c2.3,2.3,5.1,4,8.1,5.1c0.2,0.1,0.1,0.3-0.1,0.4
	c-0.8,0.3-1.5,0.9-1.7,1.8c-0.1,0.4-0.3,0.5-0.5,0.5c-0.6-0.2-1.2-0.5-1.7-0.9c-2.3-1.5-4.3-3.4-6-5.7c-2.4-3.4-4-7.4-4.6-11.6
	c-0.7,5-1.9,8.2-4.1,11c-2.5,3.3-5.8,5.6-10.7,7.3c-0.2,0.1-0.4-0.4-0.2-0.5c4.4-2.1,7.9-5.6,10.1-9.9c1.3-2.7,2.1-5.6,2.4-8.5h-9.1
	c-0.9,0-1.8,0.1-2.7,0.2l-0.3-1.2c1,0.1,2,0.2,3,0.2h9.1c0.2-2.1,0.3-4.2,0.3-6.4c0-0.8,0-1.6-0.1-2.3c3.3,0.5,3.8,0.7,3.8,1.1
	c0,0.3-0.2,0.5-1.1,0.9c0,1.2,0,2.4-0.1,3.6s-0.1,2.2-0.2,3.2h9.1c1.6-1.9,1.8-2.1,2-2.1s0.5,0.2,2.1,1.5c0.7,0.6,0.9,0.9,0.9,1.1
	s-0.1,0.3-0.4,0.3L142.2,202.9z"/>
<path class="st8" d="M173.9,201.9c-0.1,1.3-0.4,2.6-0.9,3.9c-1.1,3.1-2.7,5.9-4.7,8.6c-0.9,1.2-2,2.1-3.3,2.1c-1,0-1.9-0.5-2.5-1.3
	c-1.1-1.4-1.6-3.1-1.5-4.9c0.1-2.9,1.2-5.7,3.1-7.8c2.8-2.9,6.6-4.4,10.6-4.3c2.8-0.1,5.5,0.8,7.6,2.5c4.2,3.4,4.9,9.6,1.5,13.8
	c-0.4,0.5-0.9,1-1.4,1.4c-2.4,2.1-7,3.5-11,3.7c-0.2,0-0.4-0.2-0.5-0.4c0-0.3,0.2-0.4,0.6-0.5c3.3-0.5,6.4-2,9-4.2
	c1.9-1.8,3-4.2,3-6.8c0-2.4-1-4.7-2.8-6.3c-1.7-1.4-3.9-2.2-6.1-2.1c-0.6,0-1.2,0-1.8,0.1C173.5,200,173.9,200.9,173.9,201.9z
	 M165.6,202.6c-1.8,1.9-2.9,4.5-2.9,7.1c-0.1,1.1,0.2,2.1,0.7,3.1c0.3,0.6,0.9,1.1,1.6,1.1c0.7,0,1.4-0.6,2.3-1.9
	c2-2.6,3.5-5.5,4.7-8.6c0.3-0.8,0.5-1.7,0.5-2.6c0-0.6-0.2-1.1-0.5-1.5C169.6,199.8,167.3,200.9,165.6,202.6z"/>
<path class="st8" d="M197.6,212.9c0,0.7,0,1.7,0.1,2.2c0,0.4,0.3,0.8,0.7,1.1c0.9,0.4,1.9,0.5,2.9,0.4c2.2,0,4.3-0.2,6.4-0.6
	c0.6-0.2,1.1-0.3,1.7-0.3c1.4,0,2.1,0.5,2.1,1.4c0,0.5-0.5,0.9-1.1,1c-0.9,0.2-1.8,0.3-2.7,0.3c-1.7,0.1-3.6,0.2-5.3,0.2
	c-3.2,0-4.8-0.4-5.6-1.2c-0.5-0.5-0.9-1-1.1-1.7c-0.2-0.9-0.3-1.8-0.3-2.7c0-3.7,0.1-7.4,0.1-11.2c0-0.9-0.1-1.4-0.6-1.7
	c-0.4-0.2-0.8-0.4-1.2-0.5c-0.2-0.1-0.3-0.2-0.3-0.3s1-0.6,1.4-0.6c0.8,0.1,1.6,0.4,2.3,0.9c1.1,0.6,1.6,1.2,1.6,1.8
	c0,0.4-0.2,0.7-0.4,0.9c-0.3,0.3-0.4,0.6-0.5,1.6s-0.2,2.7-0.2,4.6c1.8-0.5,3.5-1.1,5.2-1.9c1.4-0.6,2.7-1.2,4-2
	c0.3-0.2,0.4-0.3,0.4-0.6s-0.3-0.6-0.7-0.9c-0.2-0.2-0.4-0.3-0.4-0.5s0.3-0.3,0.8-0.3c0.8,0.1,1.6,0.5,2.2,1.1
	c0.8,0.7,1.3,1.3,1.3,1.9c0,0.4-0.2,0.7-0.9,0.8c-0.4,0.1-0.8,0.2-1.1,0.4c-1.6,0.7-3.3,1.3-4.9,1.8c-1.9,0.6-3.9,1-5.9,1.4
	C197.7,210.6,197.6,211.8,197.6,212.9z M210.1,198.2c1.1,0.3,2.1,0.9,2.9,1.6c0.7,0.5,1.1,1.2,1.2,2c0,0.5-0.3,1-0.8,1
	c0,0-0.1,0-0.1,0c-0.4,0-0.8-0.3-1.1-0.9c-0.7-1.2-1.7-2.3-2.8-3.2c-0.1-0.1-0.2-0.2-0.2-0.3c0-0.2,0.1-0.3,0.3-0.3c0,0,0,0,0,0
	C209.8,198.2,209.9,198.2,210.1,198.2L210.1,198.2z M213,196c1,0.3,1.8,0.7,2.6,1.3c0.8,0.6,1.5,1.3,1.5,2.1c0.1,0.5-0.3,1-0.8,1.1
	c0,0-0.1,0-0.1,0c-0.4,0-0.7-0.2-1.1-0.8c-0.8-1.2-1.8-2.3-3-3.1c-0.1-0.1-0.2-0.2-0.2-0.3c0-0.2,0.1-0.3,0.3-0.3
	C212.5,195.9,212.8,195.9,213,196z"/>
<path class="st8" d="M224.6,205.6c1.6,0.6,2.4,1.4,2.4,2.5c0.1,0.7-0.4,1.4-1.2,1.5c-0.1,0-0.1,0-0.2,0c-0.4,0-0.8-0.4-1.2-1
	c-0.9-1.2-2-2.2-3.3-2.9c-0.2-0.1-0.3-0.3-0.3-0.5c0-0.2,0.2-0.4,0.8-0.4C222.6,205,223.6,205.3,224.6,205.6z M227.3,219.1
	c-0.3,0.4-0.6,0.6-1.1,0.7c-0.6,0-1-0.2-2-1.3c-0.8-0.7-1.3-1.6-1.5-2.7c0-0.5,0.2-1,0.4-1s0.4,0.3,0.6,0.6c0.4,0.5,1.1,1.2,1.6,1.2
	c0.6-0.1,1.2-0.2,1.6-0.6c3.2-1.8,6.3-3.8,9.2-6c2.7-2.1,5.2-4.3,7.6-6.6c0.4-0.3,0.6-0.6,0.8-0.6s0.5,0.2,0.5,0.4
	c0,0.3-0.1,0.5-0.3,0.7c-2.1,2.8-4.6,5.4-7.3,7.6c-2.9,2.5-6.1,4.9-9.4,6.9C227.8,218.5,227.5,218.8,227.3,219.1z M229,199.1
	c1.2,0.6,1.9,1.4,1.9,2.4c0.1,0.8-0.5,1.5-1.3,1.6c0,0-0.1,0-0.1,0c-0.5,0-0.8-0.4-1.3-1.2c-0.8-1.3-1.9-2.3-3.1-3.1
	c-0.2-0.1-0.3-0.2-0.3-0.4s0.3-0.3,0.6-0.3C226.7,198.2,227.9,198.6,229,199.1z M240.2,196.1c1.1,0.3,2,0.9,2.9,1.6
	c0.8,0.7,1.2,1.3,1.2,2c0,0.5-0.3,1-0.8,1c0,0-0.1,0-0.1,0c-0.4,0-0.8-0.3-1.1-0.9c-0.7-1.2-1.7-2.3-2.8-3.2
	c-0.1-0.1-0.2-0.2-0.2-0.3c0-0.2,0.2-0.3,0.3-0.3c0,0,0,0,0,0C239.9,196.1,240.1,196.1,240.2,196.1L240.2,196.1z M243.1,193.9
	c1,0.3,1.9,0.7,2.6,1.3c0.8,0.6,1.5,1.3,1.5,2.1c0,0.5-0.3,1-0.9,1c0,0,0,0,0,0c-0.4,0-0.7-0.2-1.1-0.8c-0.8-1.2-1.8-2.3-3-3.1
	c-0.1-0.1-0.2-0.2-0.2-0.3c0-0.2,0.1-0.3,0.3-0.3l0,0C242.6,193.8,242.9,193.9,243.1,193.9L243.1,193.9z"/>
<path class="st8" d="M263,209.1c-3.5,3.3-7.4,6.2-11.7,8.4c-0.3,0.2-0.7,0.3-1.1,0.4c-0.2,0-0.4-0.2-0.4-0.4c0-0.3,0.2-0.5,0.4-0.6
	c3.3-2.1,6.3-4.5,9.2-7.2c2.4-2.2,4.7-4.5,6.7-7.1c0.1-0.1,0.2-0.3,0.3-0.5c0-0.1-0.1-0.1-0.2-0.1c-0.2,0-0.3,0.1-0.5,0.1
	c-3.2,0.8-5.4,1.4-7.9,2.2c-0.4,0.1-0.7,0.3-1.1,0.5c-0.2,0.2-0.5,0.3-0.8,0.4c-0.7,0-1.2-0.4-2-1.4c-0.4-0.4-0.7-1-0.8-1.6
	c0-0.7,0.2-0.9,0.3-0.9s0.2,0.2,0.4,0.4c0.4,0.6,1.1,1.1,1.8,1.2c0.5,0,1-0.1,1.5-0.2c3-0.6,5.4-1.1,8.2-1.8
	c0.4-0.1,0.8-0.3,1.1-0.6c0.2-0.3,0.5-0.4,0.8-0.5c0.3,0,0.7,0.2,1.5,0.8s1.2,1.1,1.2,1.6s-0.2,0.6-0.8,0.8c-0.5,0.2-1,0.5-1.3,1
	c-1.2,1.3-2.3,2.5-3.7,3.8c0.4,0.4,0.7,0.7,0.7,1c0,0.2,0,0.3-0.1,0.5c0,0.2,0,0.4,0,0.6c0,1.7,0,4,0,5.6c0,2.1,0.1,4.5,0.1,5.4
	s-0.4,1.3-1.1,1.3c-0.6-0.1-1-0.5-1.1-1c-0.3-0.6-0.4-1.3-0.4-1.9c0-0.3,0.1-0.6,0.2-0.9c0.2-0.5,0.2-1,0.2-1.5
	c0-0.9,0.1-1.8,0.1-2.8L263,209.1z M263.8,194.7c1.2,0.6,2.5,1.6,2.5,2.9c0,1-0.5,1.5-1.2,1.5s-1-0.4-1.4-1.1
	c-0.7-1.2-1.7-2.3-2.8-3.2c-0.3-0.2-0.5-0.3-0.5-0.5s0.2-0.3,0.5-0.3C261.9,193.9,262.9,194.2,263.8,194.7L263.8,194.7z M272,209.2
	c1.5,0.8,2.7,1.8,2.7,3.1c0.1,0.8-0.5,1.5-1.4,1.6c-0.5,0-0.9-0.3-1.4-1.1c-1.1-1.7-2.5-3-4.2-4c-0.2-0.1-0.3-0.3-0.3-0.4
	c0-0.2,0.3-0.4,0.5-0.3C269.3,208.1,270.7,208.5,272,209.2z"/>
<path class="st8" d="M301.5,213.6c1.1,1.1,2,2.2,2,3.1c0.1,0.7-0.5,1.3-1.2,1.4c-0.1,0-0.1,0-0.2,0c-0.5,0-0.9-0.3-1.4-1
	c-2-3-4.7-5.5-7.8-7.3c-1.9,2.1-4.1,4-6.4,5.6c-2,1.4-4.2,2.5-6.4,3.4c-0.3,0.1-0.6,0.2-0.9,0.2c-0.2,0-0.3-0.2-0.4-0.4
	c0-0.2,0.1-0.4,0.3-0.5c7.1-3.8,13-9.5,16.9-16.5c0.1-0.1,0.1-0.2,0.1-0.3c0-0.1-0.1-0.1-0.3-0.1c-2.9,0.3-5.8,0.7-8.6,1.3
	c-0.5,0.1-0.9,0.2-1.4,0.4c-0.3,0.2-0.6,0.3-1,0.3c-0.9-0.2-1.6-0.8-2-1.5c-0.5-0.5-0.8-1.2-0.9-1.9c0-0.3,0.2-0.7,0.3-0.7
	s0.4,0.2,0.6,0.4c0.9,0.8,1.5,1.2,2.2,1.2c0.5,0,1.6-0.1,2.6-0.2c2.6-0.3,5.3-0.5,7.7-0.9c0.4,0,0.8-0.2,1.1-0.5
	c0.2-0.2,0.5-0.4,0.8-0.4c0.5,0,0.9,0.2,1.5,0.8c0.9,0.8,1.1,1.2,1.1,1.6s-0.2,0.5-0.8,0.7c-0.6,0.3-1.1,0.7-1.4,1.2
	c-1.3,2-2.7,3.9-4.2,5.8C296.6,210.1,299.2,211.6,301.5,213.6z"/>
<path class="st8" d="M317.1,204.2c-0.3-0.2-0.4-0.3-0.4-0.4s0.5-0.4,0.8-0.4c0.7,0.1,1.4,0.4,1.9,0.8c1,0.7,1.9,1.6,1.9,2.5
	c0,0.5-0.3,0.8-0.8,1c-0.3,0.2-0.6,0.4-0.9,0.7c-1.4,1.4-2.9,2.7-4.5,3.9c-1.8,1.4-3.8,2.5-5.9,3.4c-0.3,0.1-0.5,0.2-0.8,0.3
	c-0.2,0-0.4-0.2-0.4-0.4c0,0,0,0,0,0c0-0.2,0.2-0.3,0.5-0.5c1.9-1.3,3.7-2.7,5.5-4.2c1.2-1.1,2.3-2.3,3.3-3.6
	c0.6-0.8,0.9-1.3,0.9-1.8S317.9,204.8,317.1,204.2z M333.8,212.7c-0.7,0-1.1-0.5-1.5-1.3c-0.7-1.7-1.7-3.2-2.8-4.6
	c-1-1.2-2.1-2.2-3.4-3.1c-0.4-0.3-0.6-0.5-0.6-0.6c0-0.2,0.2-0.4,0.4-0.4c0,0,0,0,0,0c0.3,0,0.6,0.1,0.9,0.3c2,0.8,3.8,2,5.4,3.4
	c1.5,1.3,3,3.3,3,4.6C335.2,212.1,334.8,212.7,333.8,212.7z M336.7,199.2c0,1.7-1.3,3-3,3s-3-1.3-3-3s1.3-3,3-3
	C335.4,196.2,336.7,197.6,336.7,199.2C336.7,199.2,336.7,199.2,336.7,199.2L336.7,199.2z M331.7,199.2c0,1.1,0.9,1.9,2,1.9
	c1.1,0,2-0.9,1.9-2c0-1.1-0.9-1.9-2-1.9c0,0,0,0,0,0C332.6,197.3,331.8,198.1,331.7,199.2C331.7,199.2,331.7,199.2,331.7,199.2
	L331.7,199.2z"/>
<path class="st8" d="M345.4,210.6c-0.7,0-1.5-0.7-2.3-1.9c-0.4-0.5-0.7-1.1-0.8-1.7c0-0.4,0.1-0.8,0.3-0.8s0.3,0.2,0.5,0.4
	c1.1,1.1,1.6,1.4,2.4,1.4s1.9-0.1,4.2-0.2c4.5-0.3,8.9-0.4,11.8-0.5c0.7,0,1.4-0.1,2-0.4c0.3-0.1,0.7-0.2,1-0.2
	c0.5,0,0.9,0.1,1.4,0.3c1.5,0.6,1.8,1,1.8,1.6s-0.4,1-1.2,1c-1.2,0-3-0.1-4.6-0.1c-2.9,0-8.8,0.2-13.1,0.6c-0.8,0-1.5,0.2-2.3,0.5
	C346.1,210.5,345.7,210.6,345.4,210.6z"/>
<path class="st8" d="M379.5,211.9c0,1.9,0.1,5.9,0.1,8c0,1-0.4,1.3-0.9,1.3c-0.5,0-0.9-0.2-1.1-0.7c-0.4-0.7-0.7-1.6-0.7-2.4
	c0-0.3,0.1-0.6,0.2-0.9c0.1-0.5,0.2-1,0.2-1.6c0.1-1.8,0.1-3.2,0.1-6.3s0-6.2,0-9.3c0-0.9,0-1.7-0.2-2.5c-0.1-0.3-0.4-0.6-0.7-0.7
	c-0.4-0.2-0.8-0.4-1.2-0.5c-0.2-0.1-0.3-0.2-0.3-0.3s0.2-0.3,0.3-0.4c0.3-0.2,0.6-0.3,1-0.3c0.9,0.1,1.9,0.3,2.7,0.8
	c0.8,0.4,1.3,0.9,1.3,1.5c0,0.4-0.2,0.7-0.5,1c-0.2,0.3-0.3,0.8-0.3,1.2c-0.1,1.2-0.1,3.2-0.1,5.5c1.9,0.2,3.7,0.6,5.5,1.3
	c2.3,0.9,3.2,2,3.2,3.2c0,0.9-0.5,1.4-1.1,1.4s-0.9-0.2-1.6-1c-1.6-1.8-3.7-3.1-6-3.8L379.5,211.9z"/>
<path class="st8" d="M406.6,200.6c0-0.8,0-1.6,0-2.6c0-0.4-0.1-0.9-0.5-1.1c-0.5-0.3-1.1-0.4-1.8-0.5c-0.2,0-0.3-0.1-0.3-0.3
	s0.2-0.4,0.5-0.5c0.4-0.3,0.8-0.4,1.3-0.4c0.9,0.1,1.8,0.3,2.7,0.7c0.9,0.4,1.3,0.9,1.3,1.3c0,0.3-0.1,0.7-0.4,0.9
	c-0.3,0.3-0.3,0.5-0.3,1.2c0,1.2-0.1,2.9-0.1,4.6c2-0.1,3.6-0.3,5.5-0.4c0.4,0,0.8-0.1,1.1-0.3c0.3-0.1,0.6-0.2,0.9-0.2
	c0.9,0.1,1.8,0.3,2.6,0.7c0.5,0.2,0.8,0.6,0.9,1.1c0,0.5-0.3,0.9-0.8,0.9c-0.1,0-0.1,0-0.2,0c-0.6,0-1.2-0.1-1.8-0.2
	c-1.1-0.1-2.2-0.2-3.3-0.1c-1.5,0-3,0-5,0.2c-0.1,2.9-0.8,5.7-2,8.3c-1.8,3.4-4.7,6.1-8.4,7.6c-0.3,0.2-0.6,0.2-0.9,0.3
	c-0.2,0-0.4-0.1-0.4-0.4c0,0,0,0,0,0c0-0.2,0.1-0.4,0.5-0.6c3-1.8,5.5-4.4,7.1-7.5c1.1-2.4,1.8-5,1.9-7.7c-2.6,0.2-4.4,0.5-6.4,0.8
	c-0.8,0.1-1.6,0.3-2.4,0.7c-0.3,0.2-0.7,0.3-1.1,0.3c-0.6,0-1.2-0.5-2.2-1.4c-0.5-0.4-0.9-1-1-1.7c0-0.4,0.1-0.7,0.3-0.7
	s0.3,0.1,0.6,0.4c0.6,0.7,1.5,1,2.4,1c0.6,0,1.4,0,2-0.1c2.5-0.3,4.6-0.5,7.9-0.8C406.6,202.7,406.6,201.4,406.6,200.6z"/>
<path class="st8" d="M428.9,210.6c-0.7,0-1.5-0.7-2.3-1.9c-0.4-0.5-0.7-1.1-0.8-1.7c0-0.4,0.1-0.8,0.3-0.8s0.3,0.2,0.5,0.4
	c1.1,1.1,1.6,1.4,2.4,1.4s1.9-0.1,4.2-0.2c4.5-0.3,8.9-0.4,11.8-0.5c0.7,0,1.4-0.1,2-0.4c0.3-0.1,0.7-0.2,1-0.2
	c0.5,0,0.9,0.1,1.4,0.3c1.5,0.6,1.8,1,1.8,1.6s-0.4,1-1.2,1c-1.2,0-3-0.1-4.6-0.1c-2.9,0-8.8,0.2-13.1,0.6c-0.8,0-1.5,0.2-2.3,0.5
	C429.6,210.5,429.2,210.6,428.9,210.6z"/>
<path class="st8" d="M468,213.7c0,3.3,0,3.7,0.3,4.3s1.4,0.7,2.7,0.8c0.3,0,0.3,0.1,0.3,0.4s-0.1,0.4-0.3,0.4
	c-1.4-0.1-3.1-0.1-4.5-0.1s-3.1,0-4.4,0.1c-0.2,0-0.3,0-0.3-0.4s0.1-0.4,0.3-0.4c1.2-0.1,2-0.1,2.4-0.8s0.4-2.1,0.4-4.3V202
	c0-3.1,0-3.5-0.3-4.2s-1.5-0.7-2.7-0.8c-0.2,0-0.3-0.1-0.3-0.4s0.1-0.5,0.3-0.5c1.4,0.1,3.2,0.2,4.6,0.2s3.3-0.2,5.4-0.2
	c6.5,0,8.8,2.6,8.8,6.2c0,3.5-2.1,6.7-10,6.7c-0.9,0-1.7,0-2.6-0.1L468,213.7z M468,207.6c0.8,0.1,1.6,0.2,2.4,0.2
	c5,0,6.8-2.4,6.8-5.4c0-3.4-2.2-5.2-6-5.2c-1,0-2.3,0.1-2.7,0.7s-0.5,2.3-0.5,4.1L468,207.6z"/>
<path class="st8" d="M488.5,213.6c0,3.3,0,3.7,0.4,4.4s1.3,0.7,2.5,0.8c0.3,0,0.3,0.1,0.3,0.5s-0.1,0.4-0.3,0.4
	c-1.4-0.1-3-0.1-4.4-0.1s-3,0.1-4.3,0.1c-0.3,0-0.3-0.1-0.3-0.4s0.1-0.4,0.3-0.5c1.1-0.1,2-0.2,2.4-0.8s0.4-2.2,0.4-4.4v-11.7
	c0-3.1,0-3.5-0.4-4.2s-1.5-0.7-2.8-0.8c-0.2,0-0.3-0.1-0.3-0.4s0.1-0.5,0.3-0.5c1.4,0.1,3.1,0.1,4.5,0.1s3.3-0.2,5.4-0.2
	c6,0,8.5,2.6,8.5,6c0,2.4-1.6,4.9-5.3,5.9c1.3,2.5,2.8,5.2,4.6,8c0.5,1,1.2,1.8,2,2.5c0.6,0.3,1.3,0.4,2,0.5c0.2,0,0.3,0.1,0.3,0.4
	s-0.1,0.4-0.3,0.4c-1.2-0.1-2.2-0.1-3.1-0.1s-1.5,0-2.5,0c-0.4-0.9-0.8-1.7-1.2-2.5c-1.6-2.9-3.2-5.8-4.8-8.7c-0.4,0-1,0.1-1.5,0.1
	c-0.8,0-1.6,0-2.4-0.1L488.5,213.6z M488.5,207.2c0.8,0.1,1.6,0.2,2.4,0.2c4.7,0,6.4-2.3,6.4-5.2c0-3.2-1.8-5.1-5.8-5.1
	c-1.1,0-2.2,0-2.6,0.6s-0.4,2.4-0.4,4.2V207.2z"/>
<path class="st8" d="M528.3,201.5c2.2,1.4,4.7,2.4,7.2,2.9c0.2,0,0.1,0.3-0.1,0.4c-0.8,0.1-1.2,0.6-1.7,1.8
	c-0.1,0.3-0.2,0.5-0.5,0.5c-0.4-0.1-0.9-0.3-1.2-0.5c-4.9-2.5-8.9-6.6-11.3-11.6c-3.2,5.7-7.5,9.5-14.3,12.6
	c-0.2,0.1-0.4-0.3-0.2-0.5c4.4-2.7,8.2-6.5,10.9-10.9c0.7-1.2,1.2-2.4,1.7-3.6c3.1,0.9,3.6,1.1,3.6,1.5s-0.2,0.4-1.1,0.6
	C523.1,197.4,525.5,199.7,528.3,201.5z M519.4,210.3c-1.3,2.5-2.9,5-4.7,7.2c4.1-0.1,8.2-0.3,12.2-0.7c-0.9-1.5-1.9-2.9-3.2-4
	c-0.1-0.1,0.1-0.4,0.2-0.3c4,1.7,6.7,4.5,6.7,6.5c0.1,0.8-0.5,1.5-1.3,1.6c0,0,0,0,0,0c-0.7,0-0.9-0.2-1.5-1.7
	c-0.2-0.5-0.4-0.9-0.6-1.4c-5.4,1.2-11,2-16.5,2.5c-0.2,0.9-0.4,1.1-0.7,1.1s-0.5-0.2-1.3-3.7c1,0.1,1.9,0.2,2.9,0.1
	c0.7,0,1.4,0,2,0c1.2-2.3,2-4.7,2.6-7.2h-5.9c-0.7,0-1.4,0.1-2.1,0.2l-0.3-1.2c0.8,0.2,1.6,0.2,2.5,0.2h18.9
	c1.4-1.7,1.6-1.8,1.8-1.8s0.4,0.1,1.9,1.3c0.7,0.6,0.8,0.8,0.8,1s-0.1,0.3-0.4,0.3L519.4,210.3z M513.5,204.1
	c0.8,0.2,1.5,0.2,2.3,0.2h6.8c1.2-1.5,1.5-1.6,1.6-1.6s0.4,0.1,1.7,1.2c0.6,0.5,0.7,0.6,0.7,0.9s-0.1,0.3-0.4,0.3h-10.5
	c-0.7,0-1.3,0.1-2,0.2L513.5,204.1z"/>
<path class="st8" d="M543.6,213.3c0,3.6,0.1,5.5,0.1,7.7c0,0.7-0.4,1.1-1.5,1.1c-0.7,0-0.9-0.3-0.9-1c0.1-1.3,0.1-3.6,0.2-8.1
	c0-1.2,0-2.5,0-3.7c-1.5,1.2-3.2,2.2-5,3c-0.2,0.1-0.5-0.3-0.3-0.4c4.1-2.8,7.3-6.7,9.4-11.1h-6c-0.8,0-1.5,0-2.3,0.2l-0.3-1.2
	c0.8,0.2,1.7,0.3,2.6,0.2h1.8v-3.6c0-0.9-0.1-1.9-0.2-2.8c3.1,0.4,3.4,0.6,3.4,1s-0.2,0.5-1.1,0.8v4.6h2c0.8-1,1-1,1.2-1
	s0.4,0.1,1.4,1.1c0.4,0.5,0.5,0.6,0.5,0.9s-0.2,0.4-1,0.6c-1,2-2.3,3.9-3.9,5.6c3.3,1,5.1,2.4,5.1,3.9c0,0.6-0.4,1.2-1.1,1.2
	c-0.5,0-0.8-0.2-1.2-1.1c-0.7-1.5-1.7-2.7-3-3.6L543.6,213.3z M560.6,219.6c1.5-1.9,1.7-2,2-2s0.5,0.1,2,1.5c0.8,0.6,0.9,0.8,0.9,1
	s-0.1,0.3-0.4,0.3h-16.4c-0.8,0-1.7,0.1-2.5,0.2l-0.3-1.2c0.9,0.2,1.8,0.2,2.7,0.2h5.6v-13.8h-3.7c-0.7,0-1.5,0.1-2.2,0.2l-0.3-1.2
	c0.8,0.2,1.6,0.2,2.4,0.2h3.8v-4.7c0-3.2,0-5.2-0.2-6.3c3.3,0.3,3.6,0.6,3.6,1s-0.2,0.5-1.2,0.9v9.1h3.7c1.4-1.7,1.7-1.8,1.9-1.8
	s0.4,0.2,1.8,1.4c0.7,0.6,0.8,0.7,0.8,1s-0.1,0.3-0.4,0.3h-7.8v13.8L560.6,219.6z"/>
</svg>
